# xmcd
#
# Track frame offsets: 
#        150
#        12372
#        23997
#        37497
#        52422
#        65472
#        76122
#        84972
#        97497
#        107697
#        120597
#        133272
#        145872
#        158847
#        169647
#        183147
#        194697
#
# Disc length: 2746 seconds
#
# Revision: 8
# Processed by: cddbd v1.5.2PL0 Copyright (c) Steve Scherf et al.
# Submitted via: ExactAudioCopy v1.3
#
DISCID=f20ab811
DTITLE=Various Artist - Classic Rhythm And Blues Collection Vol. 2 1960-1963 
DTITLE=Disc 1
DYEAR=2000
DGENRE=R&B
TTITLE0=Martha And The Vandellas - Heatwave
TTITLE1=Jive Five - My True Story
TTITLE2=Jackie Wilson - Baby Workout
TTITLE3=Chuck Jackson - Any Day Now (My Wild Beautiful Bird)
TTITLE4=Contours - Do You Love Me
TTITLE5=Gene Chandler - Duke Of Earl
TTITLE6=Jimmy Jones - Handy Man
TTITLE7=Impressions - It's All Right
TTITLE8=Marcels - Blue Moon
TTITLE9=Dee Clark - Raindrops
TTITLE10=Miracles - Shop Around
TTITLE11=Jerry Butler - He Will Break Your Heart
TTITLE12=Miracles - You've Really Got A Hold On Me
TTITLE13=Hank Ballard And The Midnighters - Let's Go Let's Go Let's Go
TTITLE14=Ben E. King - Stand By Me
TTITLE15=Ernie K-Doe - Mother-In-Law
TTITLE16=Solomon Burke - If You Need Me
EXTD=YEAR: 2000
EXTT0=
EXTT1=
EXTT2=
EXTT3=
EXTT4=
EXTT5=
EXTT6=
EXTT7=
EXTT8=
EXTT9=
EXTT10=
EXTT11=
EXTT12=
EXTT13=
EXTT14=
EXTT15=
EXTT16=
PLAYORDER=
